<svg width="35" height="32" viewBox="0 0 35 32" fill="none" xmlns="http://www.w3.org/2000/svg">
<path d="M3.28086 32H31.7191C33.5283 32 35 30.5306 35 28.7242V9.00836C35 7.20203 33.5284 5.73259 31.7191 5.73259H25.4031V3.27577C25.4031 1.46943 23.9314 0 22.1222 0H12.8778C11.0686 0 9.59693 1.46943 9.59693 3.27577V5.73259H3.28086C1.47171 5.73259 0 7.20195 0 9.00836V28.7242C0 30.5306 1.47171 32 3.28086 32ZM31.7191 29.8162H3.28086C2.67743 29.8162 2.18721 29.3267 2.18721 28.7243V16.3031H6.39721V18.3958H8.58443V16.3031H26.4155V18.3958H28.6027V16.3031H32.8127V28.7242C32.8128 29.3267 32.3226 29.8162 31.7191 29.8162ZM11.7841 3.27577C11.7841 2.67385 12.2744 2.18382 12.8778 2.18382H22.1223C22.7257 2.18382 23.2159 2.67377 23.2159 3.27577V5.73259H11.7841V3.27577ZM3.28086 7.91642H31.7191C32.3226 7.91642 32.8128 8.40637 32.8128 9.00836V14.1193H28.6028V12.0272H26.4156V14.1193H8.5845V12.0272H6.39721V14.1193H2.18721V9.00836C2.18721 8.40644 2.67743 7.91642 3.28086 7.91642Z" fill="white"/>
</svg>
